<svg data-v-2f3bbf31="" width="27" height="26" viewBox="0 0 27 26" fill="none" xmlns="http://www.w3.org/2000/svg" class="w-6 h-6 mx-auto mb-2 bg-icon-white"><path d="M23.7217 25.8092C23.2129 25.6577 22.756 25.3686 22.4012 24.9737C21.1239 23.6773 19.8371 22.3856 18.5598 21.1324C18.2134 20.8339 17.9718 20.4321 17.8707 19.9861C17.7696 19.5401 17.8142 19.0734 17.998 18.6547C18.0227 18.6021 18.029 18.5428 18.016 18.4862C18.0029 18.4296 17.9712 18.379 17.926 18.3426C17.6427 18.0689 17.3594 17.7952 17.0905 17.5071C16.9608 17.3678 16.8696 17.387 16.7352 17.5071C15.7342 18.3297 14.5757 18.9392 13.3307 19.2981C11.511 19.8307 9.57637 19.8277 7.7583 19.2895C5.94022 18.7513 4.31569 17.7007 3.07908 16.2634C1.84136 14.8508 1.04504 13.1062 0.78866 11.2456C0.764652 11.0776 0.735842 10.9143 0.707031 10.7655V8.88798C0.817471 8.33578 0.879893 7.77879 1.03355 7.23619C1.59683 5.15225 2.8366 3.31455 4.55801 2.01193C5.96019 0.942782 7.62428 0.270727 9.37568 0.0662705C11.1271 -0.138186 12.9012 0.132494 14.512 0.84991C16.1165 1.54439 17.4988 2.66745 18.507 4.09587C19.488 5.46574 20.1019 7.06399 20.2901 8.73834C20.4784 10.4127 20.2348 12.1074 19.5826 13.6609C19.2352 14.5092 18.7626 15.3007 18.1805 16.0089C18.0412 16.177 18.046 16.2778 18.1805 16.4219C18.4542 16.6764 18.7183 16.9501 18.9824 17.219C19.0218 17.2675 19.077 17.3008 19.1383 17.3131C19.1997 17.3253 19.2634 17.3158 19.3185 17.2862C19.7221 17.1079 20.1719 17.0621 20.6032 17.1553C21.0345 17.2484 21.4252 17.4758 21.7193 17.8048C23.0638 19.1541 24.3891 20.5225 25.7672 21.843C27.1453 23.1635 26.3482 25.1754 24.8405 25.6844L24.5091 25.7948L23.7217 25.8092ZM18.7807 9.85793C18.7902 8.77014 18.5837 7.69129 18.173 6.68398C17.7622 5.67666 17.1556 4.76094 16.3882 3.98994C15.6207 3.21895 14.7078 2.60803 13.7024 2.19265C12.697 1.77726 11.6192 1.56568 10.5313 1.57017C8.89598 1.56637 7.29622 2.0476 5.93436 2.95301C4.5725 3.85841 3.50971 5.14731 2.88038 6.65673C2.25104 8.16616 2.08344 9.8283 2.39876 11.433C2.71407 13.0377 3.49815 14.5128 4.65184 15.6719C5.80553 16.8309 7.27701 17.6218 8.88021 17.9446C10.4834 18.2674 12.1463 18.1075 13.6586 17.4852C15.171 16.8629 16.4648 15.8061 17.3765 14.4484C18.2882 13.0908 18.7769 11.4933 18.7807 9.85793ZM24.9269 23.4228C24.9605 23.2739 24.8597 23.1491 24.7348 23.0242L22.8141 21.1035C22.0747 20.3593 21.3352 19.615 20.5909 18.8804C20.5295 18.8113 20.4533 18.757 20.3679 18.7215C20.2826 18.686 20.1903 18.6702 20.098 18.6752C20.0057 18.6803 19.9158 18.7061 19.8348 18.7508C19.7539 18.7955 19.6841 18.8578 19.6306 18.9332C19.3089 19.2597 19.2705 19.615 19.5442 19.8935L23.7457 24.095C23.8159 24.1794 23.9153 24.2343 24.0242 24.2487C24.1386 24.2579 24.2537 24.2435 24.3623 24.2062C24.4709 24.169 24.5707 24.1098 24.6554 24.0323C24.7401 23.9548 24.8079 23.8607 24.8546 23.7558C24.9013 23.651 24.9259 23.5376 24.9269 23.4228Z" fill="#5B5B5B"></path><path d="M10.5207 3.02539C11.8698 3.02444 13.189 3.42377 14.3111 4.17284C15.4332 4.92191 16.3079 5.98704 16.8244 7.23342C17.341 8.4798 17.4761 9.85141 17.2128 11.1746C16.9494 12.4979 16.2995 13.7132 15.3451 14.6669C14.3908 15.6206 13.175 16.2697 11.8516 16.5321C10.5281 16.7945 9.15664 16.6583 7.91062 16.1409C6.6646 15.6235 5.60009 14.7481 4.85181 13.6255C4.10354 12.5028 3.70514 11.1834 3.70704 9.83423C3.70704 8.93967 3.88331 8.05389 4.22579 7.22749C4.56826 6.40109 5.07023 5.65028 5.703 5.01795C6.33576 4.38563 7.08693 3.8842 7.91357 3.5423C8.74021 3.20041 9.62612 3.02476 10.5207 3.02539ZM10.5207 15.0777C11.5585 15.0767 12.5727 14.7681 13.4352 14.1909C14.2976 13.6136 14.9695 12.7936 15.366 11.8345C15.7625 10.8754 15.8658 9.82035 15.6627 8.8026C15.4597 7.78485 14.9594 6.85014 14.2253 6.11664C13.4911 5.38313 12.5559 4.88376 11.538 4.68164C10.5201 4.47953 9.46505 4.58374 8.50634 4.98111C7.54762 5.37848 6.72823 6.05117 6.15176 6.91414C5.57528 7.77711 5.2676 8.79162 5.2676 9.82942C5.26378 10.5193 5.39677 11.2031 5.65887 11.8412C5.92096 12.4794 6.30697 13.0593 6.79457 13.5473C7.28217 14.0354 7.86169 14.4219 8.49961 14.6846C9.13753 14.9473 9.82119 15.0809 10.5111 15.0777H10.5207Z" fill="#5B5B5B"></path></svg>
