<svg width="32" height="23" viewBox="0 0 29 20" fill="none" xmlns="http://www.w3.org/2000/svg" class="w-6 h-6 ml-2.5"><g clip-path="url(#clip0_1514_1556)"><path d="M8.1588 12.1774C8.29493 12.1774 8.43637 12.1721 8.57427 12.1597C11.1467 11.9369 13.422 9.72345 13.544 7.32609C13.5935 6.35548 13.2894 5.49449 12.6653 4.83858C11.997 4.1367 11.0264 3.74951 9.9356 3.74951C9.77118 3.74951 9.60146 3.75835 9.4335 3.77603C7.02554 4.03239 4.90045 6.00366 4.59283 8.26311C4.45139 9.30444 4.72189 10.2768 5.35482 10.9999C6.0178 11.7601 7.01493 12.1774 8.1588 12.1774ZM5.54045 9.37516H9.04985C9.58908 9.37339 9.9798 9.2072 10.222 8.87836L10.3405 8.58665C10.4112 8.39217 10.3334 8.29494 10.1124 8.29494H6.59593C6.20167 8.22599 6.11681 7.89714 6.34134 7.31195C6.44919 7.09626 6.65427 6.81869 6.95305 6.47394C7.4693 5.92587 8.13759 5.6536 8.95969 5.65184H12.8934L12.5734 6.48631H10.1707C9.54488 6.48631 9.08875 6.72145 8.79704 7.18996C8.7051 7.42864 8.79704 7.54886 9.07107 7.54709H11.3623C11.8963 7.54709 12.0183 7.92897 11.7283 8.69449C11.502 9.08521 11.2633 9.38223 11.0123 9.59085C10.8072 9.79063 10.5544 9.94444 10.2468 10.0488C9.93914 10.1531 9.57671 10.2061 9.15593 10.2061H5.21515L5.54045 9.37162V9.37516Z" fill="#EE2A2F"></path><path d="M25.9055 4.41445C25.6032 3.82749 25.0056 3.46329 24.3462 3.46329H17.5537V2.25754C17.5537 1.43544 16.8836 0.765381 16.0615 0.765381H2.04337C1.22304 0.765381 0.552979 1.43367 0.552979 2.25754V16.0123C0.552979 16.235 0.73331 16.4171 0.957841 16.4171H3.29332C3.49486 17.9358 4.78371 19.115 6.35542 19.115C7.92714 19.115 9.21775 17.9358 9.41753 16.4171H19.1731C19.2916 16.4171 19.3959 16.3641 19.4701 16.2828C19.6098 17.8669 20.9269 19.1168 22.5464 19.1168C24.1658 19.1168 25.4087 17.9376 25.6085 16.4189H26.595C27.5621 16.4189 28.3488 15.6322 28.3488 14.6651V9.59457C28.3488 9.317 28.2817 9.0412 28.1544 8.79192L25.9055 4.41798V4.41445ZM1.3627 2.25754C1.3627 1.88096 1.66856 1.57511 2.04337 1.57511H16.0615C16.4381 1.57511 16.744 1.88096 16.744 2.25754V15.6074H9.41753C9.21598 14.0887 7.92714 12.9095 6.35542 12.9095C4.78371 12.9095 3.4931 14.0887 3.29332 15.6074H1.3627V2.25754ZM6.35542 18.3071C5.09133 18.3071 4.06238 17.2781 4.06238 16.014C4.06238 14.7499 5.09133 13.721 6.35542 13.721C7.61951 13.721 8.64847 14.7499 8.64847 16.014C8.64847 17.2781 7.61951 18.3071 6.35542 18.3071ZM22.5464 18.3071C21.2823 18.3071 20.2534 17.2781 20.2534 16.014C20.2534 14.7499 21.2823 13.721 22.5464 13.721C23.8105 13.721 24.8394 14.7499 24.8394 16.014C24.8394 17.2781 23.8105 18.3071 22.5464 18.3071ZM27.5391 14.6633C27.5391 15.1849 27.1148 15.6074 26.595 15.6074H25.6085C25.407 14.0887 24.1181 12.9095 22.5464 12.9095C20.9747 12.9095 19.6098 14.1594 19.4701 15.7435C19.3959 15.6622 19.2916 15.6092 19.1731 15.6092H17.5537V4.27301H24.3462C24.7015 4.27301 25.0233 4.46926 25.186 4.78572L27.433 9.15965C27.502 9.29402 27.5391 9.44429 27.5391 9.5928V14.6633Z" fill="#EE2A2F"></path><path d="M22.5462 19.38C20.9215 19.38 19.569 18.2415 19.2596 16.6768C19.2313 16.6804 19.203 16.6821 19.1729 16.6821H9.6401C9.32364 18.2362 7.94993 19.38 6.35347 19.38C4.757 19.38 3.3833 18.2362 3.06683 16.6821H0.957654C0.588151 16.6821 0.287598 16.3816 0.287598 16.0121V2.25735C0.287598 1.28851 1.07611 0.5 2.04318 0.5H16.0613C17.0302 0.5 17.8187 1.28851 17.8187 2.25735V3.19967H24.346C25.1062 3.19967 25.7939 3.61868 26.1405 4.29581L28.3893 8.66974C28.5361 8.95438 28.6138 9.27438 28.6138 9.59262V14.6631C28.6138 15.7769 27.7087 16.6821 26.5948 16.6821H25.8328C25.5164 18.2362 24.1427 19.38 22.5462 19.38ZM19.7122 16.0121L19.7334 16.2578C19.8624 17.7358 21.0717 18.8497 22.5444 18.8497C24.0172 18.8497 25.1575 17.7889 25.3431 16.3816L25.3732 16.1517H26.5913C27.4116 16.1517 28.0799 15.4835 28.0799 14.6631V9.59262C28.0799 9.35748 28.0233 9.12234 27.9137 8.91195L25.6649 4.53802C25.4085 4.03945 24.9011 3.73006 24.3407 3.73006H17.283V2.25735C17.283 1.58022 16.7332 1.03039 16.056 1.03039H2.04318C1.36782 1.03039 0.817986 1.58022 0.817986 2.25735V16.0121C0.817986 16.0899 0.879864 16.1517 0.957654 16.1517H3.52473L3.55479 16.3816C3.74042 17.7889 4.9444 18.8497 6.35347 18.8497C7.76253 18.8497 8.96651 17.7889 9.15215 16.3816L9.1822 16.1517H19.1712C19.2189 16.1517 19.2525 16.1252 19.2719 16.104L19.355 16.0121L19.2719 15.9201C19.2525 15.8989 19.2189 15.8724 19.1712 15.8724H17.2865V4.00763H24.3442C24.7986 4.00763 25.2123 4.25868 25.4209 4.66354L27.668 9.03748C27.7564 9.20897 27.8024 9.40168 27.8024 9.59085V14.6614C27.8024 15.3279 27.2596 15.8706 26.5913 15.8706H25.3732L25.3431 15.6408C25.1575 14.2335 23.9535 13.1727 22.5444 13.1727C21.1354 13.1727 19.8624 14.2865 19.7334 15.7646L19.7122 16.0103V16.0121ZM17.8187 15.342H19.1729C19.2012 15.342 19.2313 15.3438 19.2596 15.3473C19.569 13.7827 20.9232 12.6441 22.5462 12.6441C24.1692 12.6441 25.5164 13.788 25.8328 15.342H26.5948C26.9696 15.342 27.2755 15.0379 27.2755 14.6631V9.59262C27.2755 9.48654 27.249 9.37869 27.1995 9.27969L24.9524 4.90752C24.8357 4.67946 24.6041 4.53979 24.3478 4.53979H17.8205V15.3438L17.8187 15.342ZM22.5462 18.5703C21.1354 18.5703 19.988 17.4229 19.988 16.0121C19.988 14.6012 21.1354 13.4538 22.5462 13.4538C23.957 13.4538 25.1044 14.6012 25.1044 16.0121C25.1044 17.4229 23.957 18.5703 22.5462 18.5703ZM22.5462 13.9825C21.4271 13.9825 20.5184 14.893 20.5184 16.0103C20.5184 17.1277 21.4289 18.0382 22.5462 18.0382C23.6636 18.0382 24.5741 17.1277 24.5741 16.0103C24.5741 14.893 23.6636 13.9825 22.5462 13.9825ZM6.35524 18.5703C4.9444 18.5703 3.797 17.4229 3.797 16.0121C3.797 14.6012 4.9444 13.4538 6.35524 13.4538C7.76607 13.4538 8.91347 14.6012 8.91347 16.0121C8.91347 17.4229 7.76607 18.5703 6.35524 18.5703ZM6.35524 13.9825C5.23612 13.9825 4.32739 14.893 4.32739 16.0103C4.32739 17.1277 5.23788 18.0382 6.35524 18.0382C7.47259 18.0382 8.38309 17.1277 8.38309 16.0103C8.38309 14.893 7.47259 13.9825 6.35524 13.9825ZM17.0107 15.8706H9.18397L9.15392 15.6408C8.96828 14.2335 7.7643 13.1727 6.35524 13.1727C4.94617 13.1727 3.74219 14.2335 3.55655 15.6408L3.5265 15.8706H1.09732V2.25735C1.09732 1.73404 1.52163 1.30973 2.04318 1.30973H16.0613C16.5847 1.30973 17.009 1.73404 17.009 2.25735V15.8724L17.0107 15.8706ZM9.64187 15.3403H16.4803V2.25735C16.4803 2.02752 16.2929 1.84011 16.0631 1.84011H2.04318C1.81335 1.84011 1.62771 2.02752 1.62771 2.25735V15.342H3.0686C3.38506 13.788 4.75877 12.6441 6.35524 12.6441C7.9517 12.6441 9.32541 13.788 9.64187 15.342V15.3403Z" fill="#EE2A2F"></path><path d="M24.1056 6.06336C24.0437 5.93606 23.9129 5.85474 23.7714 5.85474H19.4275C19.2207 5.85474 19.0527 6.02269 19.0527 6.22954V9.97055C19.0527 10.1774 19.2189 10.3454 19.4275 10.3454H25.6295C25.7586 10.3454 25.8788 10.2782 25.9478 10.1686C26.015 10.0589 26.022 9.92104 25.9637 9.80613L24.1056 6.06512V6.06336ZM19.8006 9.59751V6.60435H23.538L25.0231 9.59751H19.7988H19.8006Z" fill="#EE2A2F"></path><path d="M25.6279 10.6107H19.4259C19.0741 10.6107 18.7859 10.3243 18.7859 9.97072V6.22972C18.7859 5.8779 19.0723 5.58972 19.4259 5.58972H23.7698C24.012 5.58972 24.2365 5.72939 24.3426 5.94508L26.1989 9.68608C26.2979 9.88586 26.2873 10.1175 26.1707 10.3066C26.0522 10.4976 25.8489 10.609 25.6261 10.609L25.6279 10.6107ZM19.4259 6.12188C19.3658 6.12188 19.3163 6.17138 19.3163 6.23149V9.97249C19.3163 10.0326 19.3658 10.0821 19.4259 10.0821H25.6279C25.6668 10.0821 25.7004 10.0627 25.7216 10.0291C25.741 9.99901 25.7428 9.95835 25.7251 9.92476L23.867 6.18199C23.8493 6.14486 23.8104 6.12188 23.7698 6.12188H19.4259ZM25.4511 9.86288H19.5337V6.33934H23.7008L25.4493 9.86288H25.4511ZM20.0641 9.33249H24.5954L23.372 6.86972H20.0641V9.33249Z" fill="#EE2A2F"></path></g><defs><clipPath id="clip0_1514_1556"><rect width="28.3262" height="18.88" fill="white" transform="translate(0.287598 0.5)"></rect></clipPath></defs></svg>
