<svg width="27" height="27" viewBox="0 0 23 23" fill="none" xmlns="http://www.w3.org/2000/svg" class="w-6 h-6 ml-2.5"><g clip-path="url(#clip0_1514_1529)"><path d="M11.5 23C5.15857 23 0 17.8408 0 11.5C0 5.15917 5.15857 0 11.5 0C17.8414 0 23 5.15917 23 11.5C23 17.8408 17.8414 23 11.5 23ZM11.5 1.61299C6.0481 1.61299 1.61299 6.0481 1.61299 11.5C1.61299 16.9519 6.0481 21.387 11.5 21.387C16.9519 21.387 21.387 16.9519 21.387 11.5C21.387 6.0481 16.9519 1.61299 11.5 1.61299Z" fill="#EE2A2F"></path><path d="M13.5665 6.3695C14.1035 6.61384 14.5074 6.94182 14.7786 7.35402C15.0498 7.76623 15.1854 8.22205 15.1854 8.72088C15.1854 9.16595 15.1066 9.5453 14.9494 9.86013C14.7923 10.175 14.6047 10.4295 14.3879 10.6248C14.1704 10.8202 13.8837 11.0478 13.5252 11.3082C13.0915 11.601 12.7713 11.8644 12.5652 12.0974C12.3591 12.331 12.2557 12.6321 12.2557 13.0001V13.4069H9.91274V12.9027C9.91274 12.3931 9.99159 11.9618 10.1487 11.6093C10.3058 11.2569 10.4958 10.9803 10.718 10.7795C10.9403 10.5788 11.2199 10.359 11.5562 10.1206C11.8818 9.90374 12.1201 9.71376 12.2719 9.55127C12.4236 9.38878 12.4995 9.18805 12.4995 8.94909C12.4995 8.65636 12.3991 8.42815 12.1984 8.26566C11.9977 8.10317 11.7187 8.02132 11.3602 8.02132C10.6768 8.02132 10.0424 8.35228 9.45632 9.01361L7.81287 7.74413C8.79978 6.58337 10.0693 6.0033 11.6201 6.0033C12.3794 6.0033 13.0276 6.12517 13.5647 6.3695H13.5665ZM12.1506 15.3186C12.438 15.6059 12.5819 15.9506 12.5819 16.3515C12.5819 16.7524 12.438 17.1138 12.1506 17.4011C11.8633 17.6885 11.5186 17.8325 11.1177 17.8325C10.7168 17.8325 10.3715 17.6885 10.0842 17.4011C9.79684 17.1138 9.65287 16.7637 9.65287 16.3515C9.65287 15.9393 9.79624 15.6059 10.0842 15.3186C10.3715 15.0312 10.7162 14.8873 11.1177 14.8873C11.5192 14.8873 11.8633 15.0312 12.1506 15.3186Z" fill="#EE2A2F"></path></g><defs><clipPath id="clip0_1514_1529"><rect width="23" height="23" fill="white"></rect></clipPath></defs></svg>
