<svg width="23" height="27" viewBox="0 0 21 25" fill="none" xmlns="http://www.w3.org/2000/svg" class="w-6 h-6 ml-2.5"><g clip-path="url(#clip0_1514_1532)"><path d="M11.2761 15.2935C11.2761 17.3173 11.2949 19.266 11.2706 21.2136C11.2485 23.0839 9.70297 24.5852 7.84042 24.5919C5.95908 24.5996 4.39591 23.0928 4.37603 21.207C4.35393 19.0893 4.36387 16.9704 4.37603 14.8516C4.37824 14.5555 4.30643 14.4329 4.00263 14.3467C1.80535 13.7226 0.329452 11.5065 0.626621 9.31696C0.955826 6.89211 2.89902 5.14444 5.29736 5.13008C6.74896 5.12124 8.20055 5.13892 9.65215 5.11904C9.90955 5.11572 10.1968 5.04171 10.4166 4.91024C12.5023 3.66302 14.5792 2.40254 16.6516 1.13212C17.3973 0.674763 18.1507 0.614003 18.9174 1.02938C19.7017 1.45359 20.0674 2.14514 20.0685 3.0267C20.0718 7.56377 20.0707 12.1019 20.0685 16.639C20.0685 17.5206 19.7073 18.2154 18.9262 18.6419C18.1474 19.0661 17.3841 18.9976 16.6251 18.5292C14.9691 17.5051 13.2999 16.5053 11.6351 15.4956C11.5379 15.4371 11.4363 15.3852 11.275 15.2946L11.2761 15.2935ZM18.1872 9.85385C18.1872 7.63227 18.1905 5.40958 18.1806 3.18799C18.1806 3.02228 18.1331 2.78477 18.0226 2.71407C17.9221 2.64889 17.6801 2.72401 17.542 2.80686C15.5602 3.99775 13.5894 5.2041 11.6075 6.39388C11.3667 6.5386 11.2695 6.68773 11.2717 6.97606C11.286 8.88391 11.286 10.7929 11.2717 12.7007C11.2695 12.9901 11.3711 13.1382 11.6108 13.2818C13.5816 14.4638 15.5425 15.6636 17.5122 16.8478C17.6547 16.9329 17.9033 17.0367 17.9894 16.9737C18.111 16.8865 18.1795 16.6523 18.1806 16.4799C18.1927 14.2705 18.1883 12.0622 18.1883 9.85274L18.1872 9.85385ZM9.36713 12.6532V7.01915C7.91554 7.01915 6.49045 6.97054 5.06979 7.0324C3.61819 7.09648 2.48807 8.38016 2.48807 9.83728C2.48807 11.2922 3.6193 12.5759 5.072 12.6399C6.49266 12.7029 7.91775 12.6532 9.36713 12.6532ZM6.26951 14.5655C6.26399 14.645 6.25515 14.708 6.25515 14.7698C6.25515 16.8887 6.25515 19.0075 6.25625 21.1264C6.25625 21.2424 6.2684 21.3617 6.29492 21.4755C6.4783 22.262 7.18974 22.779 7.97519 22.7028C8.77501 22.6255 9.38591 21.9682 9.39033 21.1374C9.40027 19.0053 9.39365 16.8732 9.39254 14.7422C9.39254 14.6815 9.37045 14.6218 9.3605 14.5666H6.27061L6.26951 14.5655Z" fill="#EE2A2F"></path></g><defs><clipPath id="clip0_1514_1532"><rect width="19.4828" height="23.842" fill="white" transform="translate(0.589355 0.75)"></rect></clipPath></defs></svg>
