<svg xmlns="http://www.w3.org/2000/svg" version="1.0" width="25.000000pt" height="24.000000pt" preserveAspectRatio="xMidYMid meet" class="ml-2.5"><g transform="translate(0.000000,24.000000) scale(0.100000,-0.100000)" fill="#EE2A2F" stroke="none"><path d="M150 219 c33 -14 60 -39 71 -68 5 -13 12 -21 15 -18 9 9 -24 65 -48 81 -12 9 -32 16 -43 15 -17 0 -17 -2 5 -10z"></path><path d="M27 202 c-21 -23 -21 -35 -1 -75 48 -94 145 -145 188 -98 16 18 16 20 -8 47 -22 26 -27 28 -46 16 -20 -12 -25 -11 -51 14 -26 25 -27 29 -14 44 14 15 13 20 -6 43 -24 32 -40 34 -62 9z m53 -47 c-11 -13 -10 -20 6 -42 30 -40 50 -50 73 -36 16 10 22 8 37 -8 16 -18 16 -21 2 -36 -25 -24 -65 -8 -120 46 -36 36 -48 56 -48 78 0 43 19 58 44 34 16 -17 17 -22 6 -36z"></path><path d="M147 178 c13 -6 25 -19 28 -29 4 -11 11 -19 16 -19 11 0 -8 41 -25 52 -6 4 -18 7 -26 7 -9 0 -6 -4 7 -11z"></path></g></svg>
