<svg xmlns="http://www.w3.org/2000/svg" width="21" height="20" viewBox="0 0 21 20" fill="none" class="w-6 h-6 ml-2.5"><g clip-path="url(#clip0_10303_2380)"><path d="M21.0001 5.38422V7.75426C20.9864 7.7927 20.9672 7.83002 20.9596 7.86959C20.7634 8.8392 20.2217 9.52104 19.337 9.89306C19.1463 9.97334 19.1058 10.0649 19.1063 10.2566C19.1124 12.6046 19.1118 14.9526 19.1074 17.3011C19.1074 17.5182 19.0905 17.7393 19.0472 17.9507C18.8012 19.1521 17.7516 20.0047 16.5289 20.0002C12.5113 19.9855 8.49431 19.9951 4.47673 19.9934C4.31349 19.9934 4.14641 19.9917 3.98754 19.9595C2.71555 19.7011 1.89658 18.6659 1.89604 17.3215C1.89494 14.9593 1.89384 12.5972 1.89932 10.2345C1.89932 10.057 1.86426 9.97051 1.68677 9.9021C0.669506 9.50974 0.00885661 8.50733 0.0061176 7.3862C0.005022 6.91355 -0.00922086 6.4409 0.0105 5.96882C0.0263863 5.5838 0.0406291 5.18973 0.131017 4.81885C0.476132 3.39525 0.849185 1.97786 1.21731 0.559912C1.3203 0.162456 1.53887 0.000759722 1.95246 0.000759722C7.6507 0.000194351 13.3489 0.000194351 19.0466 0.000759722C19.4761 0.000759722 19.6897 0.170371 19.7999 0.593269C19.996 1.34634 20.1926 2.09942 20.3816 2.85475C20.592 3.69659 20.7941 4.54125 20.9995 5.38479L21.0001 5.38422ZM7.73232 18.6326C7.73232 18.5116 7.73232 18.4205 7.73232 18.329C7.73232 16.9116 7.72794 15.4936 7.73396 14.0762C7.73889 12.8901 8.44665 12.007 9.56143 11.8837C10.1826 11.8153 10.8175 11.8577 11.4453 11.8792C11.6497 11.8866 11.8649 11.9572 12.0523 12.0488C12.8855 12.4548 13.2733 13.1558 13.2739 14.0966C13.2744 15.5213 13.2739 16.9461 13.2739 18.3702V18.619C13.3287 18.6258 13.355 18.6314 13.3813 18.6314C14.4747 18.6314 15.5681 18.6382 16.6615 18.628C17.0302 18.6246 17.3271 18.4398 17.5517 18.1379C17.7445 17.8784 17.7861 17.5764 17.7856 17.2593C17.7834 15.0023 17.7845 12.7459 17.7845 10.489C17.7845 10.3691 17.7911 10.2487 17.7807 10.1294C17.7768 10.0842 17.7407 10.0129 17.7062 10.0033C17.1994 9.86139 16.7754 9.58041 16.4183 9.1886C15.3539 10.3691 13.5681 10.403 12.4725 9.20104C11.3829 10.3991 9.59704 10.3731 8.52773 9.19087C7.99472 9.76472 7.35105 10.0842 6.56934 10.0853C5.78105 10.087 5.13519 9.7585 4.59287 9.17843C4.26747 9.54875 3.89825 9.81673 3.45618 9.94337C3.24856 10.0027 3.21953 10.1051 3.22007 10.2973C3.22555 12.5967 3.22336 14.8955 3.22391 17.1948C3.22391 17.2796 3.22281 17.3644 3.22884 17.4487C3.2754 18.1565 3.76295 18.6309 4.44879 18.632C5.47373 18.6337 6.49867 18.632 7.52361 18.632C7.58387 18.632 7.64412 18.632 7.73396 18.632L7.73232 18.6326ZM19.4827 4.66055C19.2104 3.61178 18.9398 2.58903 18.6834 1.56288C18.6424 1.39892 18.5777 1.35765 18.4216 1.35822C16.7546 1.36387 15.0882 1.36161 13.4212 1.36161C9.81452 1.36161 6.20779 1.36274 2.60106 1.35765C2.42576 1.35765 2.35564 1.40797 2.31401 1.58606C2.18199 2.15313 2.0297 2.71454 1.88398 3.27822C1.76566 3.7356 1.64569 4.19242 1.52408 4.66055H19.4827ZM11.9433 18.6263V18.3979C11.9433 16.9534 11.9433 15.5089 11.9433 14.0644C11.9433 13.521 11.6639 13.2287 11.1386 13.2242C10.7151 13.2208 10.2917 13.2208 9.86875 13.2242C9.34231 13.2282 9.06348 13.5199 9.06348 14.0632C9.06293 15.5078 9.06348 16.9523 9.06348 18.3968C9.06348 18.4709 9.06348 18.5455 9.06348 18.6258H11.9444L11.9433 18.6263ZM1.31756 6.0361C1.31756 6.11355 1.31756 6.17574 1.31756 6.23737C1.31975 6.65292 1.2951 7.07072 1.32961 7.48345C1.38822 8.18677 1.93 8.70578 2.58188 8.72783C3.24418 8.74988 3.82594 8.28288 3.90647 7.58012C3.96399 7.07581 3.91743 6.55906 3.91743 6.0361H1.31756ZM5.25954 6.0361C5.25954 6.52458 5.23215 7.00344 5.26612 7.47779C5.31651 8.17998 5.86103 8.70238 6.51291 8.72726C7.17466 8.75214 7.74437 8.28345 7.84572 7.58521C7.89502 7.24712 7.87146 6.89772 7.87858 6.55341C7.88187 6.38097 7.87913 6.20853 7.87913 6.0361H5.26009H5.25954ZM9.19824 6.03044C9.19824 6.53475 9.16373 7.0221 9.20646 7.50267C9.26891 8.20995 9.82054 8.71539 10.473 8.72783C11.1342 8.74026 11.6924 8.27044 11.7855 7.56147C11.8392 7.15327 11.808 6.73263 11.8145 6.31765C11.8162 6.22323 11.8145 6.12825 11.8145 6.03044H9.19769H9.19824ZM13.1304 6.03383C13.1304 6.52175 13.1101 6.98761 13.1353 7.45065C13.1725 8.13871 13.688 8.66846 14.3383 8.72613C14.9441 8.77984 15.5823 8.35864 15.6853 7.73617C15.7768 7.18267 15.75 6.60825 15.7752 6.03383H13.1304ZM19.6602 6.04118H17.0669C17.0669 6.52231 17.0461 6.98818 17.0718 7.45065C17.1107 8.15567 17.6569 8.69899 18.3159 8.72726C18.9776 8.75609 19.5698 8.28853 19.6492 7.59143C19.7067 7.08599 19.6607 6.56754 19.6607 6.04118H19.6602Z" fill="#EE2A2F"></path></g><defs><clipPath id="clip0_10303_2380"><rect width="21" height="20" fill="white"></rect></clipPath></defs></svg>
